<mxfile host="Electron" agent="Mozilla/5.0 (Windows NT 10.0; Win64; x64) AppleWebKit/537.36 (KHTML, like Gecko) draw.io/26.1.1 Chrome/132.0.6834.210 Electron/34.3.3 Safari/537.36" version="26.1.1">
  <diagram id="aFCRhZkWxJWqMALn4K9W" name="Trang-2">
    <mxGraphModel dx="4239" dy="2562" grid="1" gridSize="10" guides="1" tooltips="1" connect="1" arrows="1" fold="1" page="1" pageScale="1" pageWidth="827" pageHeight="1169" math="0" shadow="0">
      <root>
        <mxCell id="0" />
        <mxCell id="1" parent="0" />
        <mxCell id="tBGe9zwwA7RbJQQe5OQk-1" value="Phòng ban Kế Toán" style="shape=umlActor;verticalLabelPosition=bottom;verticalAlign=top;html=1;outlineConnect=0;" parent="1" vertex="1">
          <mxGeometry x="656" y="-874" width="30" height="60" as="geometry" />
        </mxCell>
        <mxCell id="tBGe9zwwA7RbJQQe5OQk-2" value="Nhân viên" style="shape=umlActor;verticalLabelPosition=bottom;verticalAlign=top;html=1;outlineConnect=0;" parent="1" vertex="1">
          <mxGeometry x="650" y="-514" width="30" height="60" as="geometry" />
        </mxCell>
        <object placeholders="1" c4Name="Phân hệ quản lý nhân sự" c4Type="SystemScopeBoundary" c4Application="Software System" label="&lt;font style=&quot;font-size: 16px&quot;&gt;&lt;b&gt;&lt;div style=&quot;text-align: left&quot;&gt;%c4Name%&lt;/div&gt;&lt;/b&gt;&lt;/font&gt;&lt;div style=&quot;text-align: left&quot;&gt;[%c4Application%]&lt;/div&gt;" id="tBGe9zwwA7RbJQQe5OQk-3">
          <mxCell style="rounded=1;fontSize=11;whiteSpace=wrap;html=1;dashed=1;arcSize=20;fillColor=none;strokeColor=#666666;fontColor=#333333;labelBackgroundColor=none;align=left;verticalAlign=bottom;labelBorderColor=none;spacingTop=0;spacing=10;dashPattern=8 4;metaEdit=1;rotatable=0;perimeter=rectanglePerimeter;noLabel=0;labelPadding=0;allowArrows=0;connectable=0;expand=0;recursiveResize=0;editable=1;pointerEvents=0;absoluteArcSize=1;points=[[0.25,0,0],[0.5,0,0],[0.75,0,0],[1,0.25,0],[1,0.5,0],[1,0.75,0],[0.75,1,0],[0.5,1,0],[0.25,1,0],[0,0.75,0],[0,0.5,0],[0,0.25,0]];" parent="1" vertex="1">
            <mxGeometry x="-610" y="-1100" width="1200" height="1160" as="geometry" />
          </mxCell>
        </object>
        <mxCell id="tBGe9zwwA7RbJQQe5OQk-4" value="Phòng ban Nhân sự" style="shape=umlActor;verticalLabelPosition=bottom;verticalAlign=top;html=1;outlineConnect=0;" parent="1" vertex="1">
          <mxGeometry x="-790" y="-614" width="30" height="60" as="geometry" />
        </mxCell>
        <mxCell id="tBGe9zwwA7RbJQQe5OQk-5" value="Quản lý tuyển dụng&amp;nbsp;" style="ellipse;whiteSpace=wrap;html=1;fillColor=#9AC7BF;" parent="1" vertex="1">
          <mxGeometry x="-380" y="-619" width="140" height="70" as="geometry" />
        </mxCell>
        <mxCell id="tBGe9zwwA7RbJQQe5OQk-6" value="&amp;nbsp;Quản lý hồ sơ và hợp đồng nhân viên" style="ellipse;whiteSpace=wrap;html=1;fillColor=#9AC7BF;" parent="1" vertex="1">
          <mxGeometry x="-360" y="-920" width="140" height="70" as="geometry" />
        </mxCell>
        <mxCell id="tBGe9zwwA7RbJQQe5OQk-8" value="&amp;nbsp;Chỉnh sửa hồ sơ nhân viên" style="ellipse;whiteSpace=wrap;html=1;fillColor=#D5E8D4;" parent="1" vertex="1">
          <mxGeometry x="-520" y="-1050" width="140" height="70" as="geometry" />
        </mxCell>
        <mxCell id="tBGe9zwwA7RbJQQe5OQk-9" value="Xóa hồ sơ nhân viên" style="ellipse;whiteSpace=wrap;html=1;fillColor=#D5E8D4;" parent="1" vertex="1">
          <mxGeometry x="-360" y="-1080" width="140" height="70" as="geometry" />
        </mxCell>
        <mxCell id="tBGe9zwwA7RbJQQe5OQk-10" value="&lt;br&gt;&lt;div&gt;Cập nhật trạng thái hồ sơ nhân viên&lt;/div&gt;" style="ellipse;whiteSpace=wrap;html=1;fillColor=#D5E8D4;" parent="1" vertex="1">
          <mxGeometry x="-570" y="-960" width="140" height="70" as="geometry" />
        </mxCell>
        <mxCell id="tBGe9zwwA7RbJQQe5OQk-11" value="Quản lý lương" style="ellipse;whiteSpace=wrap;html=1;fillColor=#9AC7BF;strokeColor=#000000;" parent="1" vertex="1">
          <mxGeometry x="230" y="-879" width="140" height="70" as="geometry" />
        </mxCell>
        <mxCell id="tBGe9zwwA7RbJQQe5OQk-12" value="Quản lý nghỉ phép&amp;nbsp;" style="ellipse;whiteSpace=wrap;html=1;fillColor=#9AC7BF;" parent="1" vertex="1">
          <mxGeometry x="-400" y="-290" width="140" height="70" as="geometry" />
        </mxCell>
        <mxCell id="tBGe9zwwA7RbJQQe5OQk-13" value="Duyệt yêu cầu nghỉ phép&amp;nbsp;" style="ellipse;whiteSpace=wrap;html=1;fillColor=#D5E8D4;" parent="1" vertex="1">
          <mxGeometry x="-470" y="-140" width="140" height="70" as="geometry" />
        </mxCell>
        <mxCell id="tBGe9zwwA7RbJQQe5OQk-15" value="Quản lý chấm công" style="ellipse;whiteSpace=wrap;html=1;fillColor=#9AC7BF;" parent="1" vertex="1">
          <mxGeometry x="210" y="-200" width="140" height="70" as="geometry" />
        </mxCell>
        <mxCell id="tBGe9zwwA7RbJQQe5OQk-16" value="Xuất bảng lương" style="ellipse;whiteSpace=wrap;html=1;fillColor=#D5E8D4;" parent="1" vertex="1">
          <mxGeometry x="380" y="-1010" width="140" height="70" as="geometry" />
        </mxCell>
        <mxCell id="tBGe9zwwA7RbJQQe5OQk-17" value="Tính toán lương" style="ellipse;whiteSpace=wrap;html=1;fillColor=#D5E8D4;" parent="1" vertex="1">
          <mxGeometry x="230" y="-1040" width="140" height="70" as="geometry" />
        </mxCell>
        <mxCell id="tBGe9zwwA7RbJQQe5OQk-18" value="Lập báo cáo lương" style="ellipse;whiteSpace=wrap;html=1;fillColor=#D5E8D4;" parent="1" vertex="1">
          <mxGeometry x="410" y="-807" width="140" height="70" as="geometry" />
        </mxCell>
        <mxCell id="tBGe9zwwA7RbJQQe5OQk-19" value="&amp;lt;&amp;lt;extend&amp;gt;&amp;gt;" style="html=1;verticalAlign=bottom;labelBackgroundColor=none;endArrow=open;endFill=0;dashed=1;rounded=0;" parent="1" source="tBGe9zwwA7RbJQQe5OQk-8" target="tBGe9zwwA7RbJQQe5OQk-6" edge="1">
          <mxGeometry width="160" relative="1" as="geometry">
            <mxPoint x="-400" y="-1030" as="sourcePoint" />
            <mxPoint x="-333" y="-993" as="targetPoint" />
          </mxGeometry>
        </mxCell>
        <mxCell id="tBGe9zwwA7RbJQQe5OQk-20" value="&amp;lt;&amp;lt;extend&amp;gt;&amp;gt;" style="html=1;verticalAlign=bottom;labelBackgroundColor=none;endArrow=open;endFill=0;dashed=1;rounded=0;" parent="1" source="tBGe9zwwA7RbJQQe5OQk-9" target="tBGe9zwwA7RbJQQe5OQk-6" edge="1">
          <mxGeometry x="-0.3911" y="2" width="160" relative="1" as="geometry">
            <mxPoint x="-70" y="-710" as="sourcePoint" />
            <mxPoint x="90" y="-710" as="targetPoint" />
            <mxPoint x="1" as="offset" />
          </mxGeometry>
        </mxCell>
        <mxCell id="tBGe9zwwA7RbJQQe5OQk-24" value="" style="edgeStyle=none;html=1;endSize=12;endArrow=block;endFill=0;rounded=0;exitX=0.5;exitY=0;exitDx=0;exitDy=0;exitPerimeter=0;" parent="1" source="tBGe9zwwA7RbJQQe5OQk-2" target="tBGe9zwwA7RbJQQe5OQk-1" edge="1">
          <mxGeometry width="160" relative="1" as="geometry">
            <mxPoint x="150" y="-620" as="sourcePoint" />
            <mxPoint x="760" y="-620" as="targetPoint" />
          </mxGeometry>
        </mxCell>
        <mxCell id="tBGe9zwwA7RbJQQe5OQk-25" value="&amp;lt;&amp;lt;extend&amp;gt;&amp;gt;" style="html=1;verticalAlign=bottom;labelBackgroundColor=none;endArrow=open;endFill=0;dashed=1;rounded=0;" parent="1" source="tBGe9zwwA7RbJQQe5OQk-10" target="tBGe9zwwA7RbJQQe5OQk-6" edge="1">
          <mxGeometry width="160" relative="1" as="geometry">
            <mxPoint x="100" y="-590" as="sourcePoint" />
            <mxPoint x="260" y="-590" as="targetPoint" />
          </mxGeometry>
        </mxCell>
        <mxCell id="tBGe9zwwA7RbJQQe5OQk-26" value="&amp;nbsp;Đăng nhập" style="ellipse;whiteSpace=wrap;html=1;fillColor=#9AC7BF;strokeColor=default;align=center;verticalAlign=middle;fontFamily=Helvetica;fontSize=12;fontColor=default;" parent="1" vertex="1">
          <mxGeometry x="-50" y="-677" width="140" height="70" as="geometry" />
        </mxCell>
        <mxCell id="tBGe9zwwA7RbJQQe5OQk-27" value="&amp;lt;&amp;lt;include&amp;gt;&amp;gt;" style="html=1;verticalAlign=bottom;labelBackgroundColor=none;endArrow=open;endFill=0;dashed=1;rounded=0;" parent="1" source="tBGe9zwwA7RbJQQe5OQk-15" target="tBGe9zwwA7RbJQQe5OQk-26" edge="1">
          <mxGeometry width="160" relative="1" as="geometry">
            <mxPoint x="100" y="-740" as="sourcePoint" />
            <mxPoint x="260" y="-740" as="targetPoint" />
          </mxGeometry>
        </mxCell>
        <mxCell id="tBGe9zwwA7RbJQQe5OQk-28" value="&amp;lt;&amp;lt;extend&amp;gt;&amp;gt;" style="html=1;verticalAlign=bottom;labelBackgroundColor=none;endArrow=open;endFill=0;dashed=1;rounded=0;" parent="1" source="tBGe9zwwA7RbJQQe5OQk-13" target="tBGe9zwwA7RbJQQe5OQk-12" edge="1">
          <mxGeometry x="-0.3911" y="2" width="160" relative="1" as="geometry">
            <mxPoint x="-137" y="-976" as="sourcePoint" />
            <mxPoint x="-213" y="-965" as="targetPoint" />
            <mxPoint x="1" as="offset" />
          </mxGeometry>
        </mxCell>
        <mxCell id="tBGe9zwwA7RbJQQe5OQk-29" value="&amp;lt;&amp;lt;include&amp;gt;&amp;gt;" style="html=1;verticalAlign=bottom;labelBackgroundColor=none;endArrow=open;endFill=0;dashed=1;rounded=0;" parent="1" source="tBGe9zwwA7RbJQQe5OQk-11" target="tBGe9zwwA7RbJQQe5OQk-26" edge="1">
          <mxGeometry width="160" relative="1" as="geometry">
            <mxPoint x="100" y="-740" as="sourcePoint" />
            <mxPoint x="260" y="-740" as="targetPoint" />
          </mxGeometry>
        </mxCell>
        <mxCell id="tBGe9zwwA7RbJQQe5OQk-30" value="&amp;lt;&amp;lt;include&amp;gt;&amp;gt;" style="html=1;verticalAlign=bottom;labelBackgroundColor=none;endArrow=open;endFill=0;dashed=1;rounded=0;" parent="1" source="tBGe9zwwA7RbJQQe5OQk-5" target="tBGe9zwwA7RbJQQe5OQk-26" edge="1">
          <mxGeometry x="0.003" width="160" relative="1" as="geometry">
            <mxPoint x="100" y="-580" as="sourcePoint" />
            <mxPoint x="260" y="-580" as="targetPoint" />
            <mxPoint as="offset" />
          </mxGeometry>
        </mxCell>
        <mxCell id="tBGe9zwwA7RbJQQe5OQk-32" value="&amp;lt;&amp;lt;include&amp;gt;&amp;gt;" style="html=1;verticalAlign=bottom;labelBackgroundColor=none;endArrow=open;endFill=0;dashed=1;rounded=0;" parent="1" source="tBGe9zwwA7RbJQQe5OQk-12" target="tBGe9zwwA7RbJQQe5OQk-26" edge="1">
          <mxGeometry width="160" relative="1" as="geometry">
            <mxPoint x="100" y="-580" as="sourcePoint" />
            <mxPoint x="260" y="-580" as="targetPoint" />
          </mxGeometry>
        </mxCell>
        <mxCell id="tBGe9zwwA7RbJQQe5OQk-34" value="&amp;nbsp;Xem bảng công cá nhân" style="ellipse;whiteSpace=wrap;html=1;fillColor=#D5E8D4;strokeColor=default;align=center;verticalAlign=middle;fontFamily=Helvetica;fontSize=12;fontColor=default;" parent="1" vertex="1">
          <mxGeometry x="260" y="-70" width="140" height="70" as="geometry" />
        </mxCell>
        <mxCell id="tBGe9zwwA7RbJQQe5OQk-38" value="" style="endArrow=none;html=1;rounded=0;" parent="1" source="tBGe9zwwA7RbJQQe5OQk-11" target="tBGe9zwwA7RbJQQe5OQk-1" edge="1">
          <mxGeometry width="50" height="50" relative="1" as="geometry">
            <mxPoint x="520" y="-600" as="sourcePoint" />
            <mxPoint x="570" y="-650" as="targetPoint" />
          </mxGeometry>
        </mxCell>
        <mxCell id="tBGe9zwwA7RbJQQe5OQk-42" value="" style="endArrow=none;html=1;rounded=0;" parent="1" source="tBGe9zwwA7RbJQQe5OQk-4" target="tBGe9zwwA7RbJQQe5OQk-6" edge="1">
          <mxGeometry width="50" height="50" relative="1" as="geometry">
            <mxPoint x="-540" y="-650" as="sourcePoint" />
            <mxPoint x="-490" y="-700" as="targetPoint" />
          </mxGeometry>
        </mxCell>
        <mxCell id="tBGe9zwwA7RbJQQe5OQk-43" value="" style="endArrow=none;html=1;rounded=0;" parent="1" source="tBGe9zwwA7RbJQQe5OQk-4" target="tBGe9zwwA7RbJQQe5OQk-5" edge="1">
          <mxGeometry width="50" height="50" relative="1" as="geometry">
            <mxPoint x="-590" y="-705" as="sourcePoint" />
            <mxPoint x="-327" y="-849" as="targetPoint" />
          </mxGeometry>
        </mxCell>
        <mxCell id="tBGe9zwwA7RbJQQe5OQk-44" value="" style="endArrow=none;html=1;rounded=0;" parent="1" source="tBGe9zwwA7RbJQQe5OQk-4" target="tBGe9zwwA7RbJQQe5OQk-12" edge="1">
          <mxGeometry width="50" height="50" relative="1" as="geometry">
            <mxPoint x="-590" y="-700" as="sourcePoint" />
            <mxPoint x="-356" y="-743" as="targetPoint" />
          </mxGeometry>
        </mxCell>
        <mxCell id="tBGe9zwwA7RbJQQe5OQk-46" value="&amp;nbsp;Đăng xuất" style="ellipse;whiteSpace=wrap;html=1;fillColor=#9AC7BF;strokeColor=default;align=center;verticalAlign=middle;fontFamily=Helvetica;fontSize=12;fontColor=default;" parent="1" vertex="1">
          <mxGeometry x="-50" y="-540" width="140" height="70" as="geometry" />
        </mxCell>
        <mxCell id="tBGe9zwwA7RbJQQe5OQk-48" value="Tạo tài khoản" style="ellipse;whiteSpace=wrap;html=1;fillColor=#9AC7BF;strokeColor=default;align=center;verticalAlign=middle;fontFamily=Helvetica;fontSize=12;fontColor=default;" parent="1" vertex="1">
          <mxGeometry x="-50" y="-800" width="140" height="70" as="geometry" />
        </mxCell>
        <mxCell id="tBGe9zwwA7RbJQQe5OQk-49" value="&amp;lt;&amp;lt;include&amp;gt;&amp;gt;" style="html=1;verticalAlign=bottom;labelBackgroundColor=none;endArrow=open;endFill=0;dashed=1;rounded=0;" parent="1" source="tBGe9zwwA7RbJQQe5OQk-26" target="tBGe9zwwA7RbJQQe5OQk-48" edge="1">
          <mxGeometry x="0.003" width="160" relative="1" as="geometry">
            <mxPoint x="-30" y="-884.5" as="sourcePoint" />
            <mxPoint x="178" y="-803.5" as="targetPoint" />
            <mxPoint as="offset" />
          </mxGeometry>
        </mxCell>
        <mxCell id="tBGe9zwwA7RbJQQe5OQk-53" value="Lập bảng công&amp;nbsp;" style="ellipse;whiteSpace=wrap;html=1;fillColor=#D5E8D4;strokeColor=default;align=center;verticalAlign=middle;fontFamily=Helvetica;fontSize=12;fontColor=default;" parent="1" vertex="1">
          <mxGeometry x="320" y="-320" width="140" height="70" as="geometry" />
        </mxCell>
        <mxCell id="tBGe9zwwA7RbJQQe5OQk-54" value="&lt;br&gt;&lt;div&gt;&lt;span style=&quot;background-color: transparent; color: light-dark(rgb(0, 0, 0), rgb(255, 255, 255));&quot;&gt;Xóa yêu cầu nghỉ phép&amp;nbsp;&lt;/span&gt;&amp;nbsp;&lt;/div&gt;" style="ellipse;whiteSpace=wrap;html=1;fillColor=#D5E8D4;" parent="1" vertex="1">
          <mxGeometry x="-320" y="-120" width="140" height="70" as="geometry" />
        </mxCell>
        <mxCell id="tBGe9zwwA7RbJQQe5OQk-55" value="&amp;lt;&amp;lt;extend&amp;gt;&amp;gt;" style="html=1;verticalAlign=bottom;labelBackgroundColor=none;endArrow=open;endFill=0;dashed=1;rounded=0;" parent="1" source="tBGe9zwwA7RbJQQe5OQk-54" target="tBGe9zwwA7RbJQQe5OQk-12" edge="1">
          <mxGeometry x="-0.3911" y="2" width="160" relative="1" as="geometry">
            <mxPoint x="-369" y="-376" as="sourcePoint" />
            <mxPoint x="-321" y="-424" as="targetPoint" />
            <mxPoint x="1" as="offset" />
          </mxGeometry>
        </mxCell>
        <mxCell id="tBGe9zwwA7RbJQQe5OQk-58" value="&amp;lt;&amp;lt;extend&amp;gt;&amp;gt;" style="html=1;verticalAlign=bottom;labelBackgroundColor=none;endArrow=open;endFill=0;dashed=1;rounded=0;" parent="1" source="tBGe9zwwA7RbJQQe5OQk-53" target="tBGe9zwwA7RbJQQe5OQk-15" edge="1">
          <mxGeometry width="160" relative="1" as="geometry">
            <mxPoint x="100" y="-620" as="sourcePoint" />
            <mxPoint x="260" y="-620" as="targetPoint" />
          </mxGeometry>
        </mxCell>
        <mxCell id="tBGe9zwwA7RbJQQe5OQk-59" value="&amp;lt;&amp;lt;extend&amp;gt;&amp;gt;" style="html=1;verticalAlign=bottom;labelBackgroundColor=none;endArrow=open;endFill=0;dashed=1;rounded=0;" parent="1" source="tBGe9zwwA7RbJQQe5OQk-34" target="tBGe9zwwA7RbJQQe5OQk-15" edge="1">
          <mxGeometry width="160" relative="1" as="geometry">
            <mxPoint x="311" y="-644" as="sourcePoint" />
            <mxPoint x="359" y="-593" as="targetPoint" />
          </mxGeometry>
        </mxCell>
        <mxCell id="tBGe9zwwA7RbJQQe5OQk-60" value="&amp;lt;&amp;lt;include&amp;gt;&amp;gt;" style="html=1;verticalAlign=bottom;labelBackgroundColor=none;endArrow=open;endFill=0;dashed=1;rounded=0;" parent="1" source="tBGe9zwwA7RbJQQe5OQk-6" target="tBGe9zwwA7RbJQQe5OQk-26" edge="1">
          <mxGeometry x="0.003" width="160" relative="1" as="geometry">
            <mxPoint x="-234" y="-734" as="sourcePoint" />
            <mxPoint x="-26" y="-653" as="targetPoint" />
            <mxPoint as="offset" />
          </mxGeometry>
        </mxCell>
        <mxCell id="tBGe9zwwA7RbJQQe5OQk-61" value="Thêm hồ sơ nhân viên" style="ellipse;whiteSpace=wrap;html=1;fillColor=#D5E8D4;" parent="1" vertex="1">
          <mxGeometry x="-170" y="-1040" width="140" height="70" as="geometry" />
        </mxCell>
        <mxCell id="tBGe9zwwA7RbJQQe5OQk-62" value="&amp;lt;&amp;lt;extend&amp;gt;&amp;gt;" style="html=1;verticalAlign=bottom;labelBackgroundColor=none;endArrow=open;endFill=0;dashed=1;rounded=0;" parent="1" source="tBGe9zwwA7RbJQQe5OQk-61" target="tBGe9zwwA7RbJQQe5OQk-6" edge="1">
          <mxGeometry x="-0.3911" y="2" width="160" relative="1" as="geometry">
            <mxPoint x="-114" y="-943" as="sourcePoint" />
            <mxPoint x="-226" y="-897" as="targetPoint" />
            <mxPoint x="1" as="offset" />
          </mxGeometry>
        </mxCell>
        <mxCell id="tBGe9zwwA7RbJQQe5OQk-63" value="Sửa tin tuyển dụng" style="ellipse;whiteSpace=wrap;html=1;fillColor=#D5E8D4;" parent="1" vertex="1">
          <mxGeometry x="-430" y="-737" width="140" height="70" as="geometry" />
        </mxCell>
        <mxCell id="tBGe9zwwA7RbJQQe5OQk-66" value="&amp;lt;&amp;lt;extend&amp;gt;&amp;gt;" style="html=1;verticalAlign=bottom;labelBackgroundColor=none;endArrow=open;endFill=0;dashed=1;rounded=0;" parent="1" source="tBGe9zwwA7RbJQQe5OQk-63" target="tBGe9zwwA7RbJQQe5OQk-5" edge="1">
          <mxGeometry x="-0.3911" y="2" width="160" relative="1" as="geometry">
            <mxPoint x="-331" y="-659" as="sourcePoint" />
            <mxPoint x="-299" y="-711" as="targetPoint" />
            <mxPoint x="1" as="offset" />
          </mxGeometry>
        </mxCell>
        <mxCell id="tBGe9zwwA7RbJQQe5OQk-67" value="Tạo tin tuyển dụng&amp;nbsp;" style="ellipse;whiteSpace=wrap;html=1;fillColor=#D5E8D4;" parent="1" vertex="1">
          <mxGeometry x="-580" y="-630" width="140" height="70" as="geometry" />
        </mxCell>
        <mxCell id="tBGe9zwwA7RbJQQe5OQk-68" value="Thông báo kết quả tuyển dụng" style="ellipse;whiteSpace=wrap;html=1;fillColor=#D5E8D4;" parent="1" vertex="1">
          <mxGeometry x="-450" y="-480" width="140" height="70" as="geometry" />
        </mxCell>
        <mxCell id="ehQsdplUD45zGLVH8-Wy-1" value="Sửa yêu cầu nghỉ phép&amp;nbsp;" style="ellipse;whiteSpace=wrap;html=1;fillColor=#D5E8D4;" parent="1" vertex="1">
          <mxGeometry x="-180" y="-430" width="140" height="70" as="geometry" />
        </mxCell>
        <mxCell id="ehQsdplUD45zGLVH8-Wy-2" value="Gửi yêu cầu nghỉ phép" style="ellipse;whiteSpace=wrap;html=1;fillColor=#D5E8D4;" parent="1" vertex="1">
          <mxGeometry x="-210" y="-200" width="140" height="70" as="geometry" />
        </mxCell>
        <mxCell id="ehQsdplUD45zGLVH8-Wy-3" value="&amp;lt;&amp;lt;extend&amp;gt;&amp;gt;" style="html=1;verticalAlign=bottom;labelBackgroundColor=none;endArrow=open;endFill=0;dashed=1;rounded=0;exitX=0;exitY=0;exitDx=0;exitDy=0;entryX=0.717;entryY=0.943;entryDx=0;entryDy=0;entryPerimeter=0;" parent="1" source="ehQsdplUD45zGLVH8-Wy-2" target="tBGe9zwwA7RbJQQe5OQk-12" edge="1">
          <mxGeometry x="-0.3911" y="2" width="160" relative="1" as="geometry">
            <mxPoint x="-419" y="-163" as="sourcePoint" />
            <mxPoint x="-362" y="-202" as="targetPoint" />
            <mxPoint x="1" as="offset" />
          </mxGeometry>
        </mxCell>
        <mxCell id="ehQsdplUD45zGLVH8-Wy-4" value="&amp;lt;&amp;lt;extend&amp;gt;&amp;gt;" style="html=1;verticalAlign=bottom;labelBackgroundColor=none;endArrow=open;endFill=0;dashed=1;rounded=0;" parent="1" source="ehQsdplUD45zGLVH8-Wy-1" target="tBGe9zwwA7RbJQQe5OQk-12" edge="1">
          <mxGeometry x="-0.3911" y="2" width="160" relative="1" as="geometry">
            <mxPoint x="-409" y="-153" as="sourcePoint" />
            <mxPoint x="-352" y="-192" as="targetPoint" />
            <mxPoint x="1" as="offset" />
          </mxGeometry>
        </mxCell>
        <mxCell id="ehQsdplUD45zGLVH8-Wy-6" value="Xóa&amp;nbsp; tin tuyển dụng&amp;nbsp;" style="ellipse;whiteSpace=wrap;html=1;fillColor=#D5E8D4;" parent="1" vertex="1">
          <mxGeometry x="-260" y="-737" width="140" height="70" as="geometry" />
        </mxCell>
        <mxCell id="ehQsdplUD45zGLVH8-Wy-7" value="Sàng lọc thông tin ứng viên" style="ellipse;whiteSpace=wrap;html=1;fillColor=#D5E8D4;" parent="1" vertex="1">
          <mxGeometry x="-290" y="-514" width="140" height="70" as="geometry" />
        </mxCell>
        <mxCell id="ehQsdplUD45zGLVH8-Wy-8" value="&amp;lt;&amp;lt;extend&amp;gt;&amp;gt;" style="html=1;verticalAlign=bottom;labelBackgroundColor=none;endArrow=open;endFill=0;dashed=1;rounded=0;exitX=0.5;exitY=1;exitDx=0;exitDy=0;" parent="1" source="ehQsdplUD45zGLVH8-Wy-6" target="tBGe9zwwA7RbJQQe5OQk-5" edge="1">
          <mxGeometry x="-0.3911" y="2" width="160" relative="1" as="geometry">
            <mxPoint x="-205" y="-660" as="sourcePoint" />
            <mxPoint x="-266" y="-605" as="targetPoint" />
            <mxPoint x="1" as="offset" />
          </mxGeometry>
        </mxCell>
        <mxCell id="ehQsdplUD45zGLVH8-Wy-9" value="&amp;lt;&amp;lt;extend&amp;gt;&amp;gt;" style="html=1;verticalAlign=bottom;labelBackgroundColor=none;endArrow=open;endFill=0;dashed=1;rounded=0;" parent="1" source="tBGe9zwwA7RbJQQe5OQk-67" target="tBGe9zwwA7RbJQQe5OQk-5" edge="1">
          <mxGeometry x="-0.3911" y="2" width="160" relative="1" as="geometry">
            <mxPoint x="-388" y="-659" as="sourcePoint" />
            <mxPoint x="-332" y="-605" as="targetPoint" />
            <mxPoint x="1" as="offset" />
          </mxGeometry>
        </mxCell>
        <mxCell id="ehQsdplUD45zGLVH8-Wy-10" value="&amp;lt;&amp;lt;extend&amp;gt;&amp;gt;" style="html=1;verticalAlign=bottom;labelBackgroundColor=none;endArrow=open;endFill=0;dashed=1;rounded=0;" parent="1" source="ehQsdplUD45zGLVH8-Wy-7" target="tBGe9zwwA7RbJQQe5OQk-5" edge="1">
          <mxGeometry x="-0.3911" y="2" width="160" relative="1" as="geometry">
            <mxPoint x="-160" y="-563" as="sourcePoint" />
            <mxPoint x="-231" y="-569" as="targetPoint" />
            <mxPoint x="1" as="offset" />
          </mxGeometry>
        </mxCell>
        <mxCell id="ehQsdplUD45zGLVH8-Wy-11" value="&amp;lt;&amp;lt;extend&amp;gt;&amp;gt;" style="html=1;verticalAlign=bottom;labelBackgroundColor=none;endArrow=open;endFill=0;dashed=1;rounded=0;exitX=0.637;exitY=0.069;exitDx=0;exitDy=0;exitPerimeter=0;" parent="1" source="tBGe9zwwA7RbJQQe5OQk-68" target="tBGe9zwwA7RbJQQe5OQk-5" edge="1">
          <mxGeometry x="-0.3911" y="2" width="160" relative="1" as="geometry">
            <mxPoint x="-245" y="-502" as="sourcePoint" />
            <mxPoint x="-275" y="-541" as="targetPoint" />
            <mxPoint x="1" as="offset" />
          </mxGeometry>
        </mxCell>
        <mxCell id="ehQsdplUD45zGLVH8-Wy-17" value="Gửi yêu cầu khiếu nại chấm công&amp;nbsp;" style="ellipse;whiteSpace=wrap;html=1;fillColor=#D5E8D4;strokeColor=default;align=center;verticalAlign=middle;fontFamily=Helvetica;fontSize=12;fontColor=default;" parent="1" vertex="1">
          <mxGeometry x="70" y="-70" width="140" height="70" as="geometry" />
        </mxCell>
        <mxCell id="ehQsdplUD45zGLVH8-Wy-18" value="&amp;lt;&amp;lt;extend&amp;gt;&amp;gt;" style="html=1;verticalAlign=bottom;labelBackgroundColor=none;endArrow=open;endFill=0;dashed=1;rounded=0;entryX=0;entryY=1;entryDx=0;entryDy=0;" parent="1" source="ehQsdplUD45zGLVH8-Wy-17" target="tBGe9zwwA7RbJQQe5OQk-15" edge="1">
          <mxGeometry width="160" relative="1" as="geometry">
            <mxPoint x="333" y="-647" as="sourcePoint" />
            <mxPoint x="367" y="-595" as="targetPoint" />
          </mxGeometry>
        </mxCell>
        <mxCell id="ehQsdplUD45zGLVH8-Wy-19" value="Xem bảng lương" style="ellipse;whiteSpace=wrap;html=1;fillColor=#D5E8D4;" parent="1" vertex="1">
          <mxGeometry x="50" y="-990" width="140" height="70" as="geometry" />
        </mxCell>
        <mxCell id="BOGr3mAvOCK7ac4n8Th7-1" value="Trưởng phòng các bộ phận khác&amp;nbsp;" style="shape=umlActor;verticalLabelPosition=bottom;verticalAlign=top;html=1;outlineConnect=0;" parent="1" vertex="1">
          <mxGeometry x="-750" y="-270" width="40" height="80" as="geometry" />
        </mxCell>
        <mxCell id="BOGr3mAvOCK7ac4n8Th7-7" value="Đề xuất tuyển dụng&amp;nbsp;" style="ellipse;whiteSpace=wrap;html=1;fillColor=#D5E8D4;" parent="1" vertex="1">
          <mxGeometry x="-520" y="-555" width="140" height="70" as="geometry" />
        </mxCell>
        <mxCell id="BOGr3mAvOCK7ac4n8Th7-8" value="&amp;lt;&amp;lt;extend&amp;gt;&amp;gt;" style="html=1;verticalAlign=bottom;labelBackgroundColor=none;endArrow=open;endFill=0;dashed=1;rounded=0;entryX=0;entryY=1;entryDx=0;entryDy=0;" parent="1" source="BOGr3mAvOCK7ac4n8Th7-7" target="tBGe9zwwA7RbJQQe5OQk-5" edge="1">
          <mxGeometry x="-0.3911" y="2" width="160" relative="1" as="geometry">
            <mxPoint x="-351" y="-465" as="sourcePoint" />
            <mxPoint x="-316" y="-540" as="targetPoint" />
            <mxPoint x="1" as="offset" />
          </mxGeometry>
        </mxCell>
        <mxCell id="BOGr3mAvOCK7ac4n8Th7-9" value="" style="endArrow=none;html=1;rounded=0;" parent="1" source="BOGr3mAvOCK7ac4n8Th7-1" target="BOGr3mAvOCK7ac4n8Th7-7" edge="1">
          <mxGeometry width="50" height="50" relative="1" as="geometry">
            <mxPoint x="-640" y="-669" as="sourcePoint" />
            <mxPoint x="-344" y="-263" as="targetPoint" />
          </mxGeometry>
        </mxCell>
        <mxCell id="BOGr3mAvOCK7ac4n8Th7-11" value="" style="endArrow=none;html=1;rounded=0;" parent="1" source="BOGr3mAvOCK7ac4n8Th7-23" target="tBGe9zwwA7RbJQQe5OQk-2" edge="1">
          <mxGeometry width="50" height="50" relative="1" as="geometry">
            <mxPoint x="446" y="-541" as="sourcePoint" />
            <mxPoint x="666" y="-456" as="targetPoint" />
          </mxGeometry>
        </mxCell>
        <mxCell id="BOGr3mAvOCK7ac4n8Th7-18" value="Cập nhật thông tin nghỉ phép" style="ellipse;whiteSpace=wrap;html=1;fillColor=#D5E8D4;" parent="1" vertex="1">
          <mxGeometry x="-620" y="-190" width="140" height="70" as="geometry" />
        </mxCell>
        <mxCell id="BOGr3mAvOCK7ac4n8Th7-20" value="&amp;lt;&amp;lt;extend&amp;gt;&amp;gt;" style="html=1;verticalAlign=bottom;labelBackgroundColor=none;endArrow=open;endFill=0;dashed=1;rounded=0;entryX=0;entryY=1;entryDx=0;entryDy=0;" parent="1" source="BOGr3mAvOCK7ac4n8Th7-18" target="tBGe9zwwA7RbJQQe5OQk-12" edge="1">
          <mxGeometry x="-0.3911" y="2" width="160" relative="1" as="geometry">
            <mxPoint x="-355" y="-149" as="sourcePoint" />
            <mxPoint x="-335" y="-196" as="targetPoint" />
            <mxPoint x="1" as="offset" />
          </mxGeometry>
        </mxCell>
        <mxCell id="BOGr3mAvOCK7ac4n8Th7-22" value="" style="endArrow=none;html=1;rounded=0;entryX=0.5;entryY=0.5;entryDx=0;entryDy=0;entryPerimeter=0;" parent="1" source="ehQsdplUD45zGLVH8-Wy-2" target="tBGe9zwwA7RbJQQe5OQk-2" edge="1">
          <mxGeometry width="50" height="50" relative="1" as="geometry">
            <mxPoint x="-51" y="-170" as="sourcePoint" />
            <mxPoint x="680" y="-460" as="targetPoint" />
          </mxGeometry>
        </mxCell>
        <mxCell id="BOGr3mAvOCK7ac4n8Th7-23" value="Chấm công&amp;nbsp;" style="ellipse;whiteSpace=wrap;html=1;fillColor=#D5E8D4;strokeColor=default;align=center;verticalAlign=middle;fontFamily=Helvetica;fontSize=12;fontColor=default;" parent="1" vertex="1">
          <mxGeometry x="410" y="-160" width="140" height="70" as="geometry" />
        </mxCell>
        <mxCell id="BOGr3mAvOCK7ac4n8Th7-24" value="&amp;lt;&amp;lt;extend&amp;gt;&amp;gt;" style="html=1;verticalAlign=bottom;labelBackgroundColor=none;endArrow=open;endFill=0;dashed=1;rounded=0;" parent="1" source="BOGr3mAvOCK7ac4n8Th7-23" target="tBGe9zwwA7RbJQQe5OQk-15" edge="1">
          <mxGeometry width="160" relative="1" as="geometry">
            <mxPoint x="300" y="-517" as="sourcePoint" />
            <mxPoint x="341" y="-537" as="targetPoint" />
          </mxGeometry>
        </mxCell>
        <mxCell id="BOGr3mAvOCK7ac4n8Th7-31" value="Chỉnh sửa lương" style="ellipse;whiteSpace=wrap;html=1;fillColor=#D5E8D4;" parent="1" vertex="1">
          <mxGeometry x="430" y="-920" width="140" height="70" as="geometry" />
        </mxCell>
        <mxCell id="BOGr3mAvOCK7ac4n8Th7-34" value="&amp;lt;&amp;lt;include&amp;gt;&amp;gt;" style="html=1;verticalAlign=bottom;labelBackgroundColor=none;endArrow=open;endFill=0;dashed=1;rounded=0;" parent="1" source="tBGe9zwwA7RbJQQe5OQk-46" edge="1">
          <mxGeometry x="0.003" width="160" relative="1" as="geometry">
            <mxPoint x="19.55" y="-557.5" as="sourcePoint" />
            <mxPoint x="19.55" y="-610.5" as="targetPoint" />
            <mxPoint as="offset" />
            <Array as="points">
              <mxPoint x="19.55" y="-590.5" />
            </Array>
          </mxGeometry>
        </mxCell>
        <mxCell id="BOGr3mAvOCK7ac4n8Th7-35" value="" style="endArrow=none;html=1;rounded=0;exitX=0.5;exitY=0.5;exitDx=0;exitDy=0;exitPerimeter=0;" parent="1" source="tBGe9zwwA7RbJQQe5OQk-4" target="tBGe9zwwA7RbJQQe5OQk-15" edge="1">
          <mxGeometry width="50" height="50" relative="1" as="geometry">
            <mxPoint x="-710" y="-526" as="sourcePoint" />
            <mxPoint x="-357" y="-331" as="targetPoint" />
          </mxGeometry>
        </mxCell>
        <mxCell id="BOGr3mAvOCK7ac4n8Th7-37" value="&amp;lt;&amp;lt;extend&amp;gt;&amp;gt;" style="html=1;verticalAlign=bottom;labelBackgroundColor=none;endArrow=open;endFill=0;dashed=1;rounded=0;entryX=0;entryY=0;entryDx=0;entryDy=0;" parent="1" source="ehQsdplUD45zGLVH8-Wy-19" target="tBGe9zwwA7RbJQQe5OQk-11" edge="1">
          <mxGeometry x="-0.3911" y="2" width="160" relative="1" as="geometry">
            <mxPoint x="-134" y="-968" as="sourcePoint" />
            <mxPoint x="-237" y="-902" as="targetPoint" />
            <mxPoint x="1" as="offset" />
          </mxGeometry>
        </mxCell>
        <mxCell id="BOGr3mAvOCK7ac4n8Th7-38" value="&amp;lt;&amp;lt;extend&amp;gt;&amp;gt;" style="html=1;verticalAlign=bottom;labelBackgroundColor=none;endArrow=open;endFill=0;dashed=1;rounded=0;entryX=0.5;entryY=0;entryDx=0;entryDy=0;" parent="1" source="tBGe9zwwA7RbJQQe5OQk-17" target="tBGe9zwwA7RbJQQe5OQk-11" edge="1">
          <mxGeometry x="-0.3911" y="2" width="160" relative="1" as="geometry">
            <mxPoint x="172" y="-917" as="sourcePoint" />
            <mxPoint x="260" y="-858" as="targetPoint" />
            <mxPoint x="1" as="offset" />
          </mxGeometry>
        </mxCell>
        <mxCell id="BOGr3mAvOCK7ac4n8Th7-39" value="&amp;lt;&amp;lt;extend&amp;gt;&amp;gt;" style="html=1;verticalAlign=bottom;labelBackgroundColor=none;endArrow=open;endFill=0;dashed=1;rounded=0;" parent="1" source="tBGe9zwwA7RbJQQe5OQk-16" target="tBGe9zwwA7RbJQQe5OQk-11" edge="1">
          <mxGeometry x="-0.3911" y="2" width="160" relative="1" as="geometry">
            <mxPoint x="182" y="-907" as="sourcePoint" />
            <mxPoint x="270" y="-848" as="targetPoint" />
            <mxPoint x="1" as="offset" />
          </mxGeometry>
        </mxCell>
        <mxCell id="BOGr3mAvOCK7ac4n8Th7-40" value="&amp;lt;&amp;lt;extend&amp;gt;&amp;gt;" style="html=1;verticalAlign=bottom;labelBackgroundColor=none;endArrow=open;endFill=0;dashed=1;rounded=0;" parent="1" source="BOGr3mAvOCK7ac4n8Th7-31" edge="1">
          <mxGeometry x="-0.3911" y="2" width="160" relative="1" as="geometry">
            <mxPoint x="425" y="-935" as="sourcePoint" />
            <mxPoint x="360" y="-860" as="targetPoint" />
            <mxPoint x="1" as="offset" />
          </mxGeometry>
        </mxCell>
        <mxCell id="BOGr3mAvOCK7ac4n8Th7-41" value="&amp;lt;&amp;lt;extend&amp;gt;&amp;gt;" style="html=1;verticalAlign=bottom;labelBackgroundColor=none;endArrow=open;endFill=0;dashed=1;rounded=0;" parent="1" source="tBGe9zwwA7RbJQQe5OQk-18" edge="1">
          <mxGeometry x="-0.3911" y="2" width="160" relative="1" as="geometry">
            <mxPoint x="444" y="-864" as="sourcePoint" />
            <mxPoint x="370" y="-850" as="targetPoint" />
            <mxPoint x="1" as="offset" />
          </mxGeometry>
        </mxCell>
        <mxCell id="4YNiBmcTFo8OwMOqXIn7-1" value="" style="edgeStyle=none;html=1;endSize=12;endArrow=block;endFill=0;rounded=0;exitX=0.5;exitY=0.5;exitDx=0;exitDy=0;exitPerimeter=0;" parent="1" source="tBGe9zwwA7RbJQQe5OQk-2" edge="1">
          <mxGeometry width="160" relative="1" as="geometry">
            <mxPoint x="675" y="-504" as="sourcePoint" />
            <mxPoint x="-730" y="-160" as="targetPoint" />
            <Array as="points">
              <mxPoint x="670" y="120" />
              <mxPoint x="-730" y="120" />
            </Array>
          </mxGeometry>
        </mxCell>
      </root>
    </mxGraphModel>
  </diagram>
</mxfile>
